<svg width="104" height="100" viewBox="0 0 104 100" fill="none" xmlns="http://www.w3.org/2000/svg">
<path d="M0 12C0 5.37258 5.37258 0 12 0H92C98.6274 0 104 5.37258 104 12V88C104 94.6274 98.6274 100 92 100H12C5.37259 100 0 94.6274 0 88V12Z" fill="#24292F"/>
<path fill-rule="evenodd" clip-rule="evenodd" d="M52.0199 27C38.7375 27 28 37.8167 28 51.1983C28 61.895 34.8799 70.9495 44.4241 74.1542C45.6174 74.3951 46.0545 73.6335 46.0545 72.9929C46.0545 72.4319 46.0151 70.509 46.0151 68.5055C39.3334 69.948 37.942 65.6209 37.942 65.6209C36.8682 62.8164 35.2772 62.0956 35.2772 62.0956C33.0902 60.6132 35.4365 60.6132 35.4365 60.6132C37.8623 60.7735 39.1353 63.0971 39.1353 63.0971C41.2824 66.7827 44.7422 65.7413 46.1341 65.1002C46.3328 63.5377 46.9695 62.456 47.6455 61.8552C42.3163 61.2942 36.7094 59.211 36.7094 49.9161C36.7094 47.2719 37.6632 45.1086 39.1746 43.4261C38.9361 42.8253 38.1008 40.3409 39.4135 37.0157C39.4135 37.0157 41.4417 36.3746 46.0146 39.4996C47.9725 38.9699 49.9916 38.7005 52.0199 38.6982C54.048 38.6982 56.1154 38.979 58.0246 39.4996C62.5981 36.3746 64.6262 37.0157 64.6262 37.0157C65.9389 40.3409 65.1031 42.8253 64.8646 43.4261C66.4158 45.1086 67.3303 47.2719 67.3303 49.9161C67.3303 59.211 61.7234 61.2539 56.3544 61.8552C57.2296 62.6163 57.9848 64.0583 57.9848 66.3421C57.9848 69.5871 57.9454 72.1915 57.9454 72.9924C57.9454 73.6335 58.383 74.3951 59.5758 74.1547C69.12 70.9491 75.9999 61.895 75.9999 51.1983C76.0392 37.8167 65.2624 27 52.0199 27Z" fill="white"/>
</svg>
