<svg width="104" height="100" viewBox="0 0 104 100" fill="none" xmlns="http://www.w3.org/2000/svg">
<rect width="104" height="100" rx="12" fill="#EA4335"/>
<path d="M51.9995 45.6362V54.9308H64.9158C64.3487 57.9199 62.6466 60.4509 60.094 62.1527L67.883 68.1964C72.4212 64.0074 75.0394 57.8546 75.0394 50.5456C75.0394 48.8438 74.8867 47.2073 74.603 45.6365L51.9995 45.6362Z" fill="white"/>
<path d="M38.5492 54.568L36.7925 55.9128L30.5742 60.7563C34.5233 68.589 42.6172 74 51.999 74C58.4788 74 63.9115 71.8618 67.8825 68.1964L60.0934 62.1527C57.9552 63.5927 55.2279 64.4655 51.999 64.4655C45.759 64.4655 40.4574 60.2546 38.559 54.5818L38.5492 54.568Z" fill="white"/>
<path d="M30.5744 39.2437C28.9381 42.4726 28 46.1163 28 49.9999C28 53.8834 28.9381 57.5271 30.5744 60.7561C30.5744 60.7778 38.5599 54.5597 38.5599 54.5597C38.08 53.1197 37.7962 51.5926 37.7962 49.9996C37.7962 48.4067 38.08 46.8795 38.5599 45.4395L30.5744 39.2437Z" fill="white"/>
<path d="M51.9995 35.5564C55.5341 35.5564 58.6758 36.7781 61.1849 39.1345L68.0576 32.2619C63.8903 28.3783 58.4796 26 51.9995 26C42.6177 26 34.5233 31.3891 30.5742 39.2437L38.5596 45.44C40.4576 39.7672 45.7595 35.5564 51.9995 35.5564Z" fill="white"/>
</svg>
